<svg height="512" viewBox="0 0 64 64" width="512" xmlns="http://www.w3.org/2000/svg"><g id="Microscope"><path d="m61 17a14 14 0 1 1 -14-14 14 14 0 0 1 14 14zm-5-2a1 1 0 1 0 1-1 1 1 0 0 0 -1 1zm-3 6a2 2 0 1 0 2 2 2.006 2.006 0 0 0 -2-2zm-6 7a1 1 0 1 0 -1-1 1 1 0 0 0 1 1zm0-20a1 1 0 1 0 -1-1 1 1 0 0 0 1 1zm-6 11a4 4 0 0 0 8 0 4 4 0 1 0 -4-4 4 4 0 0 0 -4 4zm0-6a2 2 0 1 0 -2-2 2.006 2.006 0 0 0 2 2zm-5 6a1 1 0 1 0 1-1 1 1 0 0 0 -1 1z" fill="#c0ab91"/><path d="m61 17a13.994 13.994 0 0 1 -25.69 7.69 13.99 13.99 0 0 0 19.38-19.38 13.969 13.969 0 0 1 6.31 11.69z" fill="#a78966"/><g fill="#ffde55"><circle cx="57" cy="15" r="1"/><circle cx="47" cy="27" r="1"/><circle cx="47" cy="7" r="1"/><circle cx="37" cy="19" r="1"/></g><path d="m61 57a3.995 3.995 0 0 1 -4 4h-50a4 4 0 1 1 0-8h50a4 4 0 0 1 4 4z" fill="#57a4ff"/><circle cx="53" cy="23" fill="#ff9478" r="2"/><path d="m45 23a4 4 0 0 1 0-8 4 4 0 1 1 4 4 4 4 0 0 1 -4 4z" fill="#ff9478"/><circle cx="41" cy="11" fill="#ff9478" r="2"/><path d="m16.295 15.398h14.001v15.995h-14.001z" fill="#57a4ff" transform="matrix(.707 -.707 .707 .707 -9.72 23.324)"/><path d="m23.417 12.448h5.657v15.995h-5.657z" fill="#2488ff" transform="matrix(.707 -.707 .707 .707 -6.77 24.546)"/><path d="m8.515 12.61h14.001v6.01h-14.001z" fill="#ffde55" transform="matrix(.707 -.707 .707 .707 -6.497 15.544)"/><path d="m32 53h-24l-1.68-4.76a21.989 21.989 0 0 1 4.3-21.94l2.67-3.01 3.96 3.96-.89 1.48a10 10 0 0 0 2.1 12.76z" fill="#c6c5ca"/><path d="m61 57a3.995 3.995 0 0 1 -4 4h-4a4 4 0 0 0 0-8h4a4 4 0 0 1 4 4z" fill="#2488ff"/><path d="m32 53h-4l-13.54-11.51a10 10 0 0 1 -2.1-12.76l.89-1.48-1.84-1.84 1.88-2.12 3.96 3.96-.89 1.48a10 10 0 0 0 2.1 12.76z" fill="#898890"/><path d="m3.49 12.08a2 2 0 0 1 0-2.83l5.66-5.66a2 2 0 1 1 2.83 2.83l-.71.71 4.24 4.24-4.24 4.24-4.24-4.24-.71.71a2.016 2.016 0 0 1 -2.83 0z" fill="#2488ff"/><path d="m15.637 9.66h5.657v6.01h-5.657z" fill="#ffcd00" transform="matrix(.707 -.707 .707 .707 -3.547 16.766)"/><path d="m49 43a2.006 2.006 0 0 1 2 2 2.015 2.015 0 0 1 -2 2h-36v-4z" fill="#c0ab91"/><path d="m26.83 31.18-1.42-1.42 4.25-4.24 1.41 1.41h.01l1.41 1.41a2 2 0 0 1 0 2.83l-1.42 1.42a2 2 0 0 1 -2.83 0z" fill="#ffde55"/><path d="m57 52h-24.63l-4.71-4h21.34a3 3 0 0 0 0-6h-28.39l-1.5-1.27a8.965 8.965 0 0 1 -1.89-11.48l.23-.39 5.84 5.85a1.014 1.014 0 0 0 1.42 0l2.12-2.12.71.7a2.994 2.994 0 0 0 4.24 0l1.41-1.41a2.994 2.994 0 0 0 0-4.24l-.7-.71 1.87-1.88a14.777 14.777 0 1 0 -1.68-3.58l-13.63-13.63a1.014 1.014 0 0 0 -1.41 0l-2.13 2.12-2.82-2.83a3 3 0 0 0 0-4.24 3.068 3.068 0 0 0 -4.25 0l-5.65 5.65a3.006 3.006 0 0 0 0 4.25 3.075 3.075 0 0 0 4.24 0l2.83 2.83-2.12 2.12a1 1 0 0 0 0 1.41l4.18 4.18-2.05 2.31a22.981 22.981 0 0 0 -4.49 22.93l1.22 3.47a4.988 4.988 0 0 0 .4 9.96h50a5 5 0 0 0 0-10zm-10-48a13 13 0 1 1 -13 13 13.012 13.012 0 0 1 13-13zm2 40a1 1 0 0 1 0 2h-35v-2zm-17.22-13.54-1.42 1.42a1 1 0 0 1 -1.41 0l-2.12-2.12 2.83-2.83 2.12 2.12a.99.99 0 0 1 .29.71.967.967 0 0 1 -.29.7zm.71-6.36-1.42 1.41-.71-.7a1 1 0 0 0 -1.41 0l-4.24 4.24a1 1 0 0 0 0 1.41l.7.71-1.41 1.42-9.9-9.9 8.49-8.49zm-24.75-13.43a.99.99 0 0 0 -1.42 0l-.71.7a1.014 1.014 0 0 1 -1.41 0 1 1 0 0 1 0-1.41l5.66-5.66a1 1 0 0 1 1.41 0 1.008 1.008 0 0 1 0 1.42l-.71.7a1.008 1.008 0 0 0 0 1.42l3.54 3.53-2.83 2.83zm2.12 7.77 8.48-8.48 2.83 2.83-8.48 8.48zm1.51 8.52 1.96-2.21 2.66 2.65-.49.82a10.954 10.954 0 0 0 2.04 13.78h-4.54a1 1 0 0 0 -1 1v4a1 1 0 0 0 1 1h11.57l4.71 4h-20.57l-1.45-4.09a21 21 0 0 1 4.11-20.95zm45.63 33.04h-50a3 3 0 0 1 0-6h50a3 3 0 0 1 0 6z"/><path d="m56 56h2v2h-2z"/><path d="m52 56h2v2h-2z"/><path d="m53 20a3 3 0 1 0 3 3 3 3 0 0 0 -3-3zm0 4a1 1 0 1 1 1-1 1 1 0 0 1 -1 1z"/><path d="m41 14a3 3 0 1 0 -3-3 3 3 0 0 0 3 3zm0-4a1 1 0 1 1 -1 1 1 1 0 0 1 1-1z"/><circle cx="47" cy="27" r="2"/><circle cx="47" cy="7" r="2"/><circle cx="37" cy="19" r="2"/><circle cx="57" cy="15" r="2"/><path d="m40 19a5 5 0 0 0 9.916.916 5 5 0 1 0 -5.832-5.832 5.009 5.009 0 0 0 -4.084 4.916zm5-3a1 1 0 0 0 1-1 3 3 0 1 1 3 3 1 1 0 0 0 -1 1 3 3 0 1 1 -3-3z"/><path d="m48 14h2v2h-2z"/><path d="m44 18h2v2h-2z"/><path d="m53 8h2v2h-2z"/><path d="m38 23h2v2h-2z"/></g></svg>