<svg height="512" viewBox="0 0 64 64" width="512" xmlns="http://www.w3.org/2000/svg"><g id="Chemistry"><rect fill="#c6c5ca" height="6" rx="2" width="14" x="47" y="21"/><circle cx="59" cy="5" fill="#ffde55" r="2"/><circle cx="59" cy="15" fill="#ffde55" r="2"/><path d="m54 61a3.995 3.995 0 0 1 -4-4v-30h8v30a4 4 0 0 1 -4 4z" fill="#57a4ff"/><circle cx="47" cy="11" fill="#ffde55" r="3"/><path d="m41 61a5 5 0 0 1 -4.53-2.91v-.01a4.876 4.876 0 0 1 -.47-2.08c0-2.05 1-4 3-4v-7h4v7c2 0 3 1.95 3 4a4.876 4.876 0 0 1 -.47 2.08v.01a5 5 0 0 1 -4.53 2.91z" fill="#00eed1"/><circle cx="33" cy="19" fill="#ffde55" r="2"/><path d="m28 61a5 5 0 0 1 -4.53-2.91v-.01c-.07-.16-.14-.32-.2-.49a4.913 4.913 0 0 1 -.27-1.59c0-2.05 1-4 3-4v-7h4v7c2 0 3 1.95 3 4a4.876 4.876 0 0 1 -.47 2.08v.01a5 5 0 0 1 -4.53 2.91z" fill="#00eed1"/><g fill="#ffde55"><circle cx="31" cy="5" r="2"/><circle cx="26" cy="13" r="3"/><path d="m20.77 58.2a2 2 0 0 1 -1.83 2.8h-13.88a2 2 0 0 1 -1.83-2.8l5.77-13.2v-8h6v8z"/></g><path d="m58 27v30a3.994 3.994 0 0 1 -6 3.46 3.98 3.98 0 0 0 2-3.46v-30z" fill="#2488ff"/><path d="m18.94 61h-4a2 2 0 0 0 1.83-2.8l-5.77-13.2v-8h4v8l5.77 13.2a2 2 0 0 1 -1.83 2.8z" fill="#ffcd00"/><path d="m18 35a2.015 2.015 0 0 1 -2 2h-8a2.006 2.006 0 0 1 -2-2 2.015 2.015 0 0 1 2-2h8a2.006 2.006 0 0 1 2 2z" fill="#c6c5ca"/><path d="m61 23v2a2.006 2.006 0 0 1 -2 2h-4a2.006 2.006 0 0 0 2-2v-2a2.006 2.006 0 0 0 -2-2h4a2.006 2.006 0 0 1 2 2z" fill="#898890"/><path d="m18 35a2.015 2.015 0 0 1 -2 2h-4a2.015 2.015 0 0 0 2-2 2.006 2.006 0 0 0 -2-2h4a2.006 2.006 0 0 1 2 2z" fill="#898890"/><circle cx="17" cy="6" fill="#ffde55" r="3"/><circle cx="14" cy="17" fill="#ffde55" r="2"/><circle cx="6" cy="10" fill="#ffde55" r="3"/><path d="m21.69 57.8-5.69-13.01v-6.79a3 3 0 0 0 0-6h-8a3 3 0 0 0 0 6v6.79l-5.69 13.01a3 3 0 0 0 2.75 4.2h13.88a3 3 0 0 0 2.75-4.2zm-14.69-22.8a1 1 0 0 1 1-1h8a1 1 0 0 1 0 2h-8a1 1 0 0 1 -1-1zm12.78 24.55a1 1 0 0 1 -.84.45h-13.88a1 1 0 0 1 -.84-.45.979.979 0 0 1 -.08-.95l5.78-13.2a1.1 1.1 0 0 0 .08-.4v-7h4v7a1.1 1.1 0 0 0 .08.4l5.78 13.2a.979.979 0 0 1 -.08.95z"/><path d="m44 51.13v-5.13h2v-2h-10v2h2v5.13c-1.81.5-3 2.36-3 4.87a5.845 5.845 0 0 0 .52 2.41.882.882 0 0 0 .09.2 5.976 5.976 0 0 0 10.78-.01.663.663 0 0 0 .09-.19 5.845 5.845 0 0 0 .52-2.41c0-2.51-1.19-4.37-3-4.87zm.64 6.51c-.01.01-.01.02-.02.03a3.977 3.977 0 0 1 -7.24 0c-.01-.01-.01-.02-.02-.03a4.015 4.015 0 0 1 -.36-1.64c0-1.11.42-3 2-3a1 1 0 0 0 1-1v-6h2v6a1 1 0 0 0 1 1c1.58 0 2 1.89 2 3a4.015 4.015 0 0 1 -.36 1.64z"/><path d="m31 51.13v-5.13h2v-2h-10v2h2v5.13c-1.81.5-3 2.36-3 4.87a5.845 5.845 0 0 0 .52 2.41.882.882 0 0 0 .09.2 5.976 5.976 0 0 0 10.78-.01.663.663 0 0 0 .09-.19 5.845 5.845 0 0 0 .52-2.41c0-2.51-1.19-4.37-3-4.87zm.64 6.51c-.01.01-.01.02-.02.03a3.977 3.977 0 0 1 -7.24 0c-.01-.01-.01-.02-.02-.03a4.015 4.015 0 0 1 -.36-1.64c0-1.11.42-3 2-3a1 1 0 0 0 1-1v-6h2v6a1 1 0 0 0 1 1c1.58 0 2 1.89 2 3a4.015 4.015 0 0 1 -.36 1.64z"/><path d="m59 20h-10a3.009 3.009 0 0 0 -3 3v2a3.009 3.009 0 0 0 3 3v29a5 5 0 0 0 10 0v-29a3.009 3.009 0 0 0 3-3v-2a3.009 3.009 0 0 0 -3-3zm-2 37a3 3 0 0 1 -6 0v-29h6zm3-32a1 1 0 0 1 -1 1h-10a1 1 0 0 1 -1-1v-2a1 1 0 0 1 1-1h10a1 1 0 0 1 1 1z"/><path d="m42 42v-4a1 1 0 0 0 -1-1h-13a1 1 0 0 0 -1 1v4h2v-3h11v3z"/><path d="m13 26h17v9h2v-10a1 1 0 0 0 -1-1h-19a1 1 0 0 0 -1 1v5h2z"/><path d="m40 4h13v14h2v-15a1 1 0 0 0 -1-1h-15a1 1 0 0 0 -1 1v32h2z"/><path d="m6 14a4 4 0 1 0 -4-4 4 4 0 0 0 4 4zm0-6a2 2 0 1 1 -2 2 2 2 0 0 1 2-2z"/><path d="m14 20a3 3 0 1 0 -3-3 3 3 0 0 0 3 3zm0-4a1 1 0 1 1 -1 1 1 1 0 0 1 1-1z"/><path d="m17 10a4 4 0 1 0 -4-4 4 4 0 0 0 4 4zm0-6a2 2 0 1 1 -2 2 2 2 0 0 1 2-2z"/><path d="m30 19a3 3 0 1 0 3-3 3 3 0 0 0 -3 3zm4 0a1 1 0 1 1 -1-1 1 1 0 0 1 1 1z"/><path d="m31 8a3 3 0 1 0 -3-3 3 3 0 0 0 3 3zm0-4a1 1 0 1 1 -1 1 1 1 0 0 1 1-1z"/><path d="m59 12a3 3 0 1 0 3 3 3 3 0 0 0 -3-3zm0 4a1 1 0 1 1 1-1 1 1 0 0 1 -1 1z"/><path d="m59 8a3 3 0 1 0 -3-3 3 3 0 0 0 3 3zm0-4a1 1 0 1 1 -1 1 1 1 0 0 1 1-1z"/><path d="m26 17a4 4 0 1 0 -4-4 4 4 0 0 0 4 4zm0-6a2 2 0 1 1 -2 2 2 2 0 0 1 2-2z"/><path d="m43 11a4 4 0 1 0 4-4 4 4 0 0 0 -4 4zm6 0a2 2 0 1 1 -2-2 2 2 0 0 1 2 2z"/></g></svg>